<svg xmlns="http://www.w3.org/2000/svg" width="24" height="24" viewBox="0 0 24 24">
    <g fill="none" fill-rule="evenodd">
        <path d="M.002 0h24v24h-24z"/>
        <path fill="#fff" d="M12.002 0c-6.629 0-12 5.371-12 12s5.371 12 12 12c6.63 0 12-5.371 12-12s-5.37-12-12-12zm6.968 13.355c0 .32-.261.58-.58.58h-4.452v4.452c0 .32-.262.58-.581.58h-2.71a.582.582 0 0 1-.58-.58v-4.452H5.615a.582.582 0 0 1-.58-.58v-2.71c0-.32.26-.58.58-.58h4.452V5.613c0-.32.26-.58.58-.58h2.71c.32 0 .58.26.58.58v4.452h4.452c.32 0 .58.26.58.58v2.71z"/>
    </g>
</svg>
